<?xml version="1.0" standalone="no"?><!DOCTYPE svg PUBLIC "-//W3C//DTD SVG 1.1//EN" "http://www.w3.org/Graphics/SVG/1.1/DTD/svg11.dtd"><svg t="1501927532913" class="icon" style="" viewBox="0 0 1024 1024" version="1.1" xmlns="http://www.w3.org/2000/svg" p-id="1091" xmlns:xlink="http://www.w3.org/1999/xlink" width="200" height="200"><defs><style type="text/css"></style></defs><path d="M511.755963 466.326728L55.020049 9.590815a32.048276 32.048276 0 0 0-45.673591 0 32.623994 32.623994 0 0 0 0 45.673591L466.082372 512.00032l-456.735914 456.735914a32.623994 32.623994 0 0 0 0 45.673591 32.048276 32.048276 0 0 0 45.673591 0L511.755963 557.673911l456.735914 456.735914a32.048276 32.048276 0 0 0 45.673592 0 32.623994 32.623994 0 0 0 0-45.673591L557.429555 512.00032l456.735914-456.735914a32.623994 32.623994 0 0 0 0-45.673591 32.048276 32.048276 0 0 0-45.673592 0L511.755963 466.326728z" fill="#2c2c2c" p-id="1092"></path></svg>