<?xml version="1.0" standalone="no"?><!DOCTYPE svg PUBLIC "-//W3C//DTD SVG 1.1//EN" "http://www.w3.org/Graphics/SVG/1.1/DTD/svg11.dtd"><svg t="1499766895810" class="icon" style="" viewBox="0 0 1024 1024" version="1.1" xmlns="http://www.w3.org/2000/svg" p-id="4349" xmlns:xlink="http://www.w3.org/1999/xlink" width="48" height="48"><defs><style type="text/css"></style></defs><path d="M511.573333 0.853333c-278.506658 0-505.023984 222.591993-511.423984 499.562651C6.058683 258.730659 189.82401 64.810665 415.65867 64.810665c229.54666 0 415.658654 200.426661 415.658654 447.615986 0 52.970665 42.943999 95.935997 95.914664 95.935997 52.949331 0 95.914664-42.965332 95.914664-95.935997C1023.146651 229.887993 794.111991 0.853333 511.573333 0.853333zM511.573333 1023.999967c278.506658 0 505.023984-222.591993 511.402651-499.562651-5.888 241.663992-189.653327 435.626653-415.487987 435.626653-229.54666 0-415.658654-200.447994-415.658654-447.637319 0-52.949331-42.965332-95.914664-95.935997-95.914664C42.965348 416.511987 1.6e-05 459.455985 1.6e-05 512.42665 1.6e-05 794.965307 229.034676 1023.999967 511.573333 1023.999967z" p-id="4350" fill="#2c2c2c"></path></svg>