<?xml version="1.0" standalone="no"?><!DOCTYPE svg PUBLIC "-//W3C//DTD SVG 1.1//EN" "http://www.w3.org/Graphics/SVG/1.1/DTD/svg11.dtd"><svg t="1502067438385" class="icon" style="" viewBox="0 0 1024 1024" version="1.1" xmlns="http://www.w3.org/2000/svg" p-id="3088" xmlns:xlink="http://www.w3.org/1999/xlink" width="200" height="200"><defs><style type="text/css"></style></defs><path d="M985.021152 951.806578 711.021508 677.795556C778.343819 606.912 819.872708 511.384178 819.872708 405.980444 819.872708 187.720533 642.936885 10.784711 424.688352 10.784711 206.428441 10.784711 29.492618 187.720533 29.492618 405.980444 29.492618 624.194844 206.428441 801.1648 424.688352 801.1648 511.512174 801.1648 591.600352 772.822756 656.806397 725.320533L934.151108 1002.676622C948.236797 1016.728178 970.912708 1016.728178 984.987019 1002.676622 999.072708 988.5568 999.072708 965.892267 985.021152 951.806578L985.021152 951.806578ZM424.688352 736.823467C246.125508 736.823467 101.343285 592.041244 101.343285 413.4784 101.343285 234.8928 246.125508 90.144711 424.688352 90.144711 603.273952 90.144711 748.022041 234.926933 748.022041 413.4784 748.022041 592.007111 603.273952 736.823467 424.688352 736.823467L424.688352 736.823467Z" p-id="3089" fill="#ffffff"></path></svg>